<?xml version="1.0" standalone="no"?><!DOCTYPE svg PUBLIC "-//W3C//DTD SVG 1.1//EN" "http://www.w3.org/Graphics/SVG/1.1/DTD/svg11.dtd"><svg t="1749383630362" class="icon" viewBox="0 0 1038 1024" version="1.1" xmlns="http://www.w3.org/2000/svg" p-id="29353" width="48.65625" height="48" xmlns:xlink="http://www.w3.org/1999/xlink"><path d="M774.15067 66.086033H271.347814c-109.108656 0-197.552599 88.456771-197.552599 197.539772V766.428661c0 109.108656 88.443943 197.565427 197.552599 197.565426h502.802856c109.095829 0 197.539772-88.456771 197.539772-197.565426V263.638632c0-109.095829-88.456771-197.552599-197.539772-197.552599z m4.528022 403.09658a16.547163 16.547163 0 0 1-20.844294 10.544006l-89.059652-29.207666-112.520706 63.28969 112.405261 64.238908L756.808217 549.724966a16.585644 16.585644 0 0 1 20.792986 10.685105 16.585644 16.585644 0 0 1-10.697934 20.805813l-59.351722 19.035651 58.825805 33.607415a16.521508 16.521508 0 1 1-16.406063 28.694576l-59.492822-34.005061 13.994538 61.930002a16.508681 16.508681 0 0 1-16.13669 20.164449c-7.568082 0-14.379356-5.207867-16.111036-12.891394l-20.664713-91.445522-114.290868-65.316397v126.989853l69.151748 63.289691a16.534335 16.534335 0 0 1-22.319429 24.397445l-46.819492-42.881524v75.847576c0 9.133008-7.388501 16.508681-16.521508 16.508681a16.495854 16.495854 0 0 1-16.521508-16.508681v-75.065113l-45.972892 42.086233a16.521508 16.521508 0 1 1-22.306602-24.397444l68.279494-62.494401v-125.745609l-108.48012 61.006438-21.267594 91.317249a16.534335 16.534335 0 0 1-32.18359-7.503945l14.417838-61.853038-66.124515 37.186221a16.508681 16.508681 0 0 1-22.486183-6.298184 16.547163 16.547163 0 0 1 6.285356-22.524665l65.393361-36.775748-59.197795-19.433296a16.547163 16.547163 0 0 1 10.313115-31.413955l87.956508 28.874158 110.365727-62.083929-109.570437-62.6355-89.30337 28.591958a16.547163 16.547163 0 0 1-10.107879-31.465264l60.467694-19.394814-65.867969-37.648002a16.508681 16.508681 0 1 1 16.393235-28.668921l65.16247 37.23753-13.725166-60.762721a16.521508 16.521508 0 1 1 32.2349-7.311537l20.39534 90.303896 108.916247 62.250682V353.98101l-68.279494-62.507228a16.495854 16.495854 0 0 1-1.026181-23.332782 16.470199 16.470199 0 0 1 23.332782-1.039008l45.972893 42.073406v-67.727922a16.508681 16.508681 0 1 1 33.043016 0v68.510384l46.819492-42.855868a16.508681 16.508681 0 1 1 22.319428 24.37179l-69.151747 63.302518V486.537893l115.996893-65.239434 20.998221-90.162796a16.521508 16.521508 0 1 1 32.170763 7.516773l-14.122811 60.685758 59.043869-33.209771a16.547163 16.547163 0 0 1 16.213654 28.822848l-59.723713 33.581762 60.300939 19.792459c8.671226 2.847651 13.404485 12.173068 10.544006 20.857121z" fill="#C69C6D" p-id="29354"></path></svg>